<?xml version="1.0" encoding="UTF-8"?> <!-- Generator: Adobe Illustrator 22.0.1, SVG Export Plug-In . SVG Version: 6.00 Build 0) --> <svg xmlns="http://www.w3.org/2000/svg" xmlns:xlink="http://www.w3.org/1999/xlink" id="Layer_1" x="0px" y="0px" viewBox="0 0 250 250" style="enable-background:new 0 0 250 250;" xml:space="preserve"> <style type="text/css"> .st0{fill:#00A44F;} .st1{fill:#0961AD;} </style> <g id="Grupo_703" transform="translate(-558 -1134)"> <g id="Grupo_669" transform="translate(546 1121)"> <g id="Trazado_1141"> <path class="st0" d="M122.6,173.8c-2.8,0-5.6-1.1-7.6-3.3l-25.1-27c-3.9-4.2-3.7-10.8,0.5-14.7c4.2-3.9,10.8-3.7,14.7,0.5 l18.4,19.7l50.9-43.1c4.4-3.7,11-3.2,14.7,1.2c3.7,4.4,3.2,11-1.2,14.7l-58.5,49.5C127.3,173,124.9,173.8,122.6,173.8z"></path> </g> <g id="Elipse_52"> <path class="st1" d="M137,263c-68.9,0-125-56.1-125-125C12,69.1,68.1,13,137,13c68.9,0,125,56.1,125,125 C262,206.9,205.9,263,137,263z M137,31.5C78.3,31.5,30.5,79.3,30.5,138S78.3,244.5,137,244.5S243.5,196.7,243.5,138 S195.7,31.5,137,31.5z"></path> </g> </g> </g> </svg> 